<svg width="1246" height="429" viewBox="0 0 1246 429" fill="none" xmlns="http://www.w3.org/2000/svg">
<path d="M416.328 0H528.187L646.33 288.177H651.358L769.501 0H881.359V428.914H793.38V149.743H789.819L678.799 426.82H618.889L507.868 148.696H504.307V428.914H416.328V0Z" fill="#FD5252"/>
<path d="M956.089 428.914V0H1245.16V74.7668H1046.79V176.969H1230.29V251.736H1046.79V354.148H1246V428.914H956.089Z" fill="#FD5252"/>
<path fill-rule="evenodd" clip-rule="evenodd" d="M341.901 0.418875V395.133L0 197.776L341.901 0.418875ZM272.775 120.125V275.427L138.252 197.776L272.775 120.125Z" fill="#190000"/>
<path fill-rule="evenodd" clip-rule="evenodd" d="M210.703 319.401L147.413 429L67.5926 382.925L130.883 273.326L210.703 319.401Z" fill="#190000"/>
</svg>
